<svg xmlns="http://www.w3.org/2000/svg" width="296" height="176" viewBox="0 0 296 176"><g fill="none" fill-rule="evenodd"><path fill="#FCB832" d="M-235 0h768v176h-768z"/><path fill="#131312" d="M143.01 30.528c3.017-.356 6.086-.78 9.123-.34 4.497.215 8.926 1.34 13.096 3.02.715.33 1.442.64 2.164.958 9.883 4.758 17.77 13.5 21.395 23.884 1.305 3.753 2.155 7.69 2.292 11.667.213 1.503.247 3.03.02 4.537-.366 8.924-3.823 17.666-9.496 24.543-6.202 7.566-15.104 12.865-24.728 14.602-8.87 1.6-18.278.372-26.33-3.746-5.47-2.697-10.264-6.683-14.075-11.436-4.434-5.57-7.423-12.298-8.558-19.337-.408-2.315-.483-4.665-.588-7.01.162-1.754.1-3.53.397-5.274 1.334-10.68 7.026-20.712 15.44-27.383 5.7-4.573 12.616-7.613 19.84-8.69m3.99 2.09c-8.608.406-17.013 3.88-23.513 9.537-4.5 3.91-8.13 8.83-10.463 14.323-3.663 8.472-4.18 18.248-1.503 27.076 3.19 10.72 11.17 19.877 21.337 24.48 11.54 5.407 25.696 4.644 36.597-1.966 7.843-4.657 13.98-12.127 17.004-20.75 2.518-7.068 2.948-14.86 1.26-22.167-1.94-8.57-6.88-16.384-13.704-21.883-7.515-6.108-17.355-9.31-27.01-8.65M131.742 43.66c7.562-4.68 17.002-6.206 25.623-3.983 2.802.712 5.552 1.736 8.042 3.22-2.32.674-4.572 1.58-6.918 2.156-4.406 1.2-9.016 1.328-13.548 1.087-4.475-.34-8.88-1.29-13.2-2.48m20.12 6.21c5.588-1.062 10.893-3.22 15.996-5.688 7.52 5.348 12.87 13.74 14.327 22.89.334 2.455.614 4.952.29 7.425-.554 8.67-4.73 17.026-11.28 22.703-6.63 5.905-15.722 8.915-24.554 8.145-10.35-.7-20.125-6.7-25.58-15.525-3.523-5.57-5.267-12.213-5.094-18.79.324-6.702 2.46-13.492 6.852-18.652.362-.392.686-.893 1.23-1.037 3.266-1.015 6.682-1.443 10.09-1.6 2.245 0 4.49-.013 6.74.015 1.293.118 2.814.226 3.68 1.335.696.892.266 2.155-.348 2.96-1.092.91-2.632.636-3.935.888-4.21.39-8.232 2.548-10.87 5.865-2.312 2.824-3.615 6.38-4.008 9.99-.59 5.47.627 11.183 3.66 15.8 2.654 4.103 6.692 7.243 11.24 8.972 3.063 1.17 6.482 1.36 9.647.498 3.843-1.003 7.167-3.56 9.472-6.762 2.317-3.25 3.423-7.214 3.75-11.16.165-2.896.184-5.835-.5-8.674-.92-4.23-3.246-8.167-6.66-10.844a20.176 20.176 0 0 0-6.29-3.304c-.563-.116-1.07-.64-.925-1.25.174-1.235.507-2.505 1.275-3.51.436-.53 1.177-.535 1.794-.684m-1.13 4.76c.06.09.176.278.234.37 4.135 1.275 8.152 3.442 10.84 6.928 3.234 4.046 4.414 9.415 4.143 14.512-.187 4.27-1.502 8.513-3.952 12.028-2.12 3.14-5.146 5.56-8.514 7.24.044.43.358.763.81.61 1.904-.145 3.807-.535 5.556-1.324 3.66-1.665 6.938-4.234 9.29-7.51a23.013 23.013 0 0 0 4.366-13.697c.36-6.846-3.37-13.72-9.362-17.053-3.75-2.165-8.194-2.978-12.482-2.588-.372.02-.664.24-.926.482m2.61 69.335c1.28-.015 2.558.007 3.84 0 0 2.244 0 4.488-.003 6.735 1.23-1.668 3.43-2.382 5.405-1.79 1.614.533 2.684 2.13 2.75 3.805.01 2.516 0 5.03.003 7.546-1.28.02-2.56-.005-3.84 0 0-2.033.004-4.066.004-6.1.01-.797-.31-1.675-1.03-2.086-.72-.376-1.605-.207-2.255.223-.768.61-1.084 1.653-1.044 2.608.01 1.785.007 3.57.007 5.357-1.28 0-2.556 0-3.835.004-.014-5.436-.002-10.87-.004-16.3m29.753.302c1.276-.05 2.558-.023 3.836-.016.002.9.002 1.802.002 2.707h-3.84c-.003-.9.002-1.795 0-2.692m-81.097.77c2.397.063 4.813-.19 7.186.234 1.493.18 3.05.824 3.856 2.163.726 1.273.726 2.808.436 4.205a4.785 4.785 0 0 1-3.328 2.966c-1.315.445-2.712.26-4.072.294v5.364H102c.003-5.075-.004-10.148.003-15.223m4.077 2.88c.005 1.44-.015 2.882.014 4.323 1.317.047 2.932-.064 3.597-1.41-.052-.754.18-1.65-.422-2.24-.79-.943-2.114-.626-3.186-.672m85.3-1.557a155.22 155.22 0 0 1 3.687-1.136c.01 1.247.003 2.493.003 3.74.884.02 1.77.014 2.655.004.014.864.012 1.727.02 2.593a262.74 262.74 0 0 0-2.664.005c-.006 1.76-.042 3.524.025 5.283-.03.535.5.838.817 1.184.605-.01 1.214-.01 1.824-.014.094.8.207 1.596.255 2.4-1.652.014-3.387.39-4.97-.27-1.12-.445-1.74-1.665-1.77-2.827-.02-1.917.013-3.83-.018-5.744-.78-.026-1.56-.024-2.336-.024.003-.866.01-1.73.015-2.595.78.02 1.562.017 2.345-.014.06-.85-.164-1.78.115-2.583m-75.506 4.888c1.755-2.71 5.79-3.244 8.46-1.642 1.962 1.3 2.504 3.875 2.38 6.086-2.643.005-5.284-.01-7.926.01.07 1.097.96 1.99 2.002 2.228 1.65.298 3.38.082 4.888-.67-.002.872-.005 1.745.024 2.618-1.896.66-3.954.818-5.934.515-1.54-.33-3.06-1.15-3.9-2.527-1.273-1.965-1.2-4.638.004-6.615m4.31 0c-.982.34-1.405 1.456-1.41 2.42 1.53.017 3.057.03 4.586-.01-.075-.79-.214-1.705-.926-2.18-.655-.414-1.534-.618-2.25-.228m10.506-2.055c2.157-.53 4.518-.822 6.61.12 1.485.667 2.388 2.288 2.376 3.893.002 1.93-.015 3.864 0 5.796-.012.436.136.852.26 1.266-1.203-.002-2.408.01-3.61-.03-.007-.608-.012-1.216-.026-1.825-.672.884-1.452 1.837-2.616 2.022-1.612.28-3.575.056-4.638-1.335-.837-1.006-.808-2.442-.38-3.616.8-1.574 2.652-2.068 4.27-2.26 1.055.005 2.135-.123 3.174.123.12-.943-.552-1.773-1.435-2.014-1.64-.14-3.38-.148-4.85.704.014-.862.007-1.723.022-2.582.28-.087.56-.176.842-.265m1.293 6.957c.006.375.006.753 0 1.13.563.804 1.635.934 2.506.63 1.04-.466 1.712-1.596 1.604-2.74-1.393-.023-3.168-.336-4.11.98m11.866-6.01c2.143-1.608 5.214-1.866 7.632-.754-.115.886-.31 1.76-.307 2.66a4.888 4.888 0 0 0-3.437-.403c-1.712.577-2.46 2.71-1.79 4.323.997 2.006 3.68 2.288 5.498 1.31-.022.953.012 1.908.012 2.86-2.258.564-4.775.653-6.88-.473-3.387-1.823-3.737-7.192-.726-9.52m29.074-.653c1.492-.905 3.47-1.062 5.016-.196 1.342.777 2.133 2.23 2.484 3.702.252 1.97.11 4.16-1.183 5.766-1.24 1.718-3.665 2.14-5.587 1.497-.848-.276-1.4-.99-1.986-1.608-.084 2.114-.024 4.23-.043 6.348h-3.71c.003-5.345-.006-10.69.008-16.033 1.14.007 2.28 0 3.423.015 0 .72-.006 1.445.018 2.17.484-.585.873-1.288 1.56-1.663m.064 2.455c-1.667 1.128-1.756 3.888-.254 5.19.408.377.98.454 1.492.615.617-.19 1.33-.325 1.72-.895.912-1.263.965-3.137.03-4.4-.685-.885-2.055-1.162-2.988-.51m10.128-2.978c1.27.005 2.536.02 3.805-.01.048 3.766.007 7.535.022 11.302h-3.84c.007-3.764-.017-7.528.012-11.293"/></g></svg>