<svg xmlns="http://www.w3.org/2000/svg" width="296" height="176" viewBox="0 0 296 176"><g fill="none" fill-rule="evenodd"><path fill="#40A544" d="M-235 0h768v176h-768z"/><path fill="#FFF" d="M140.006 76.122c-8.04 0-12.648 5.045-12.648 13.857 0 4.5 1.128 7.97 3.383 10.31 2.258 2.362 5.54 3.592 9.83 3.592 3.408 0 5.614-.738 7.158-1.65 1.348-.786 2.82-2.017 2.868-4.38.024-1.304-1.3-3.027-2.18-2.19-1.595 1.526-4.854 3.273-7.87 3.273-4.485 0-7.303-2.608-7.646-7.063h15.66c3.21 0 3.21-2.806 3.21-4.332 0-1.23-.22-4.43-2.18-7.137-2.034-2.83-5.27-4.282-9.583-4.282zm5.49 10.977H133.02c.588-3.966 2.99-6.08 7.01-6.08 3.7 0 5.76 1.696 6.226 5.24.073.47-.294.837-.76.837zM123.388 63c-2.745.27-4.363 1.673-4.363 5.094V78.36a11.276 11.276 0 0 0-6.814-2.24c-3.97 0-7.08 1.158-9.164 3.47-2.107 2.315-3.186 5.81-3.186 10.363 0 4.504 1.08 7.95 3.185 10.312 2.133 2.363 5.295 3.594 9.388 3.594 7.55 0 12.083-4.31 12.083-11.52V63.963c0-.566-.514-1.01-1.127-.96zm-4.363 29.362c0 4.282-2.328 6.62-6.593 6.62-4.83 0-7.084-2.88-7.084-9.007 0-6.007 2.304-8.96 7.084-8.96h.367c3.502.172 6.223 3.002 6.223 6.35v4.996zm-22.01-15.26c0-.59-.515-.984-1.128-.935-2.745.27-4.362 1.674-4.362 5.095v11.912c0 4.037-1.74 5.66-6.005 5.66s-6.005-1.623-6.005-5.66v-15.75c0-.59-.515-.985-1.128-.936-2.77.25-4.387 1.65-4.387 5.098v11.59c0 3.225.71 5.66 2.23 7.385 1.888 2.24 4.95 3.298 9.29 3.298 4.363 0 7.426-1.082 9.314-3.297 1.495-1.748 2.205-4.16 2.205-7.384V80.65l-.027-3.544zm86.937-.984c-3.627 0-6.397 1.084-8.284 3.176-1.888-2.043-5.147-3.175-9.045-3.175-2.524 0-4.877.79-6.544 2.19-.76-1.35-2.23-2.016-4.17-2.19-.66-.05-1.225.396-1.225.937v22.668s.025 0 .074.026c.367 2.536 1.887 3.62 4.29 3.865.612.05 1.126-.394 1.126-.936V87.69c0-1.502.196-2.708.59-3.668h.023v-.05c.857-2.042 2.597-2.952 5.465-2.952 4.363 0 6.078 1.772 6.078 6.325v8.49h-.05v2.733c0 .222 0 .443.026.665v.492h.05c.316 2.584 1.885 3.716 4.312 3.938.612.05 1.127-.394 1.127-.935v-3.963c0-.05.024-.074.024-.148V86.63c0-3.79 2.034-5.586 6.176-5.586 4.34 0 6.18 1.87 6.18 6.326v11.223c0 3.446 1.616 4.824 4.36 5.095.614.05 1.13-.394 1.13-.936V86.657c0-2.904-.736-5.242-2.23-6.99-1.987-2.338-5.173-3.544-9.487-3.544zm39.437.395c-.69-.246-1.376-.394-2.06-.394-1.62 0-2.968.716-3.58 1.87l-7.67 16.86-4.51-10.532-2.747-6.325c-.613-1.157-1.96-1.87-3.58-1.87-.685 0-1.37.147-2.057.393a.863.863 0 0 0-.515 1.157l3.016 6.62 7.524 16.983c-2.205 5.168-3.357 7.752-7.55 7.752h-2.35c-.785 0-1.398.616-1.324 1.38.196 2.115 2.254 3.592 4.632 3.592 4.778 0 8.038-2.905 10.514-8.468l12.818-27.86a.916.916 0 0 0-.563-1.157z"/></g></svg>