<svg xmlns="http://www.w3.org/2000/svg" width="296" height="176" viewBox="0 0 296 176"><g fill="none" fill-rule="evenodd"><path fill="#FF3B6B" d="M-235 0h768v176h-768z"/><path fill="#FFF" d="M84.82 92.943h-.05a3.91 3.91 0 0 1-.88 1.04 5.3 5.3 0 0 1-1.145.73 5.74 5.74 0 0 1-1.296.426 6.688 6.688 0 0 1-1.337.135c-.89 0-1.71-.15-2.466-.452a5.6 5.6 0 0 1-1.94-1.267 5.843 5.843 0 0 1-1.257-1.933c-.3-.745-.452-1.56-.452-2.447s.15-1.703.453-2.448a5.83 5.83 0 0 1 1.26-1.933 5.6 5.6 0 0 1 1.94-1.268 6.595 6.595 0 0 1 2.465-.453c.436 0 .88.046 1.334.138a5.74 5.74 0 0 1 1.294.427 5.3 5.3 0 0 1 1.145.727c.35.294.645.64.88 1.043h.05V76h1.51v18.976h-1.51v-2.033zm.152-3.765a4.56 4.56 0 0 0-.378-1.845 4.724 4.724 0 0 0-1.03-1.506 4.958 4.958 0 0 0-1.536-1.017 4.814 4.814 0 0 0-1.913-.376c-.705 0-1.342.125-1.912.376a4.43 4.43 0 0 0-1.46 1.017 4.31 4.31 0 0 0-.92 1.506 5.362 5.362 0 0 0-.313 1.845c0 .652.105 1.267.314 1.845.21.577.516 1.08.92 1.506.402.423.888.762 1.46 1.013.57.25 1.206.377 1.91.377.69 0 1.326-.125 1.914-.376a4.963 4.963 0 0 0 1.535-1.016c.436-.428.78-.93 1.03-1.507a4.567 4.567 0 0 0 .38-1.843zm15.594 3.614c-.587.887-1.313 1.523-2.177 1.908-.867.385-1.82.577-2.86.577-.89 0-1.694-.15-2.415-.452a5.448 5.448 0 0 1-1.862-1.267 5.566 5.566 0 0 1-1.196-1.933c-.277-.745-.416-1.57-.416-2.472 0-.87.144-1.674.43-2.41a5.75 5.75 0 0 1 1.207-1.92 5.67 5.67 0 0 1 1.837-1.28c.705-.31 1.485-.465 2.34-.465.89 0 1.674.155 2.353.465.68.31 1.25.72 1.71 1.23.463.51.81 1.09 1.046 1.744.235.653.352 1.314.352 1.983v1.054H91.15c0 .318.064.724.19 1.218a4.3 4.3 0 0 0 .69 1.443 4.4 4.4 0 0 0 1.348 1.205c.562.334 1.29.502 2.177.502a4.87 4.87 0 0 0 2.24-.553c.72-.37 1.275-.87 1.66-1.51l1.108.93zM99.408 88.2c0-.52-.105-1.005-.314-1.457a3.893 3.893 0 0 0-.856-1.192 4.05 4.05 0 0 0-1.283-.813 4.16 4.16 0 0 0-1.573-.3c-.822 0-1.506.166-2.05.5-.546.335-.978.72-1.297 1.155-.32.436-.545.86-.68 1.27-.134.41-.2.69-.2.84h8.253zm5.176 3.814c.32.62.788 1.092 1.41 1.418a4.16 4.16 0 0 0 1.962.49 3.168 3.168 0 0 0 1.812-.578 2.33 2.33 0 0 0 .616-.665c.16-.26.24-.56.24-.894 0-.535-.173-.937-.517-1.205a3.837 3.837 0 0 0-1.27-.626c-.504-.15-1.057-.28-1.66-.39a7.126 7.126 0 0 1-1.662-.5 3.575 3.575 0 0 1-1.27-.943c-.345-.4-.517-.97-.517-1.705 0-.57.118-1.063.353-1.48.237-.42.544-.767.92-1.043.38-.276.8-.48 1.27-.615s.95-.202 1.436-.202c.957 0 1.783.176 2.48.527.695.352 1.236.904 1.622 1.657l-1.36.802c-.284-.535-.64-.94-1.068-1.217-.43-.276-.987-.414-1.675-.414-.268 0-.55.043-.843.126-.292.083-.557.2-.79.35a2.04 2.04 0 0 0-.593.578 1.39 1.39 0 0 0-.24.803c0 .52.17.905.515 1.156.344.25.768.447 1.27.59a15.69 15.69 0 0 0 1.662.364c.604.1 1.157.263 1.66.49.504.225.927.55 1.27.978.345.427.517 1.033.517 1.82 0 .602-.113 1.125-.34 1.57a3.246 3.246 0 0 1-.93 1.115 4.16 4.16 0 0 1-1.347.68 5.5 5.5 0 0 1-1.585.226c-1.006 0-1.924-.192-2.755-.577a4.177 4.177 0 0 1-1.925-1.784l1.334-.904zM115.8 83.38h1.51v11.596h-1.51V83.38zm-.378-4.594c0-.318.11-.586.327-.803a1.09 1.09 0 0 1 .802-.326c.32 0 .587.108.805.326.217.217.326.485.326.803 0 .318-.11.586-.327.803a1.096 1.096 0 0 1-.806.324c-.32 0-.586-.11-.804-.327a1.09 1.09 0 0 1-.328-.804zm18.11 15.437c0 1.44-.21 2.602-.63 3.49-.42.886-.943 1.572-1.572 2.057a5.23 5.23 0 0 1-2.026.98c-.72.166-1.375.25-1.963.25a9.05 9.05 0 0 1-1.72-.163 8.223 8.223 0 0 1-1.6-.477 6.583 6.583 0 0 1-1.37-.766c-.41-.3-.767-.644-1.07-1.03l1.183-1.103a4.803 4.803 0 0 0 2.015 1.66c.805.35 1.66.527 2.566.527.773 0 1.423-.1 1.952-.302.528-.2.964-.464 1.308-.79.344-.327.613-.686.806-1.08.19-.393.334-.786.426-1.18.093-.393.147-.765.164-1.116.017-.353.025-.637.025-.855V92.72h-.05a4.627 4.627 0 0 1-1.774 1.655c-.745.402-1.622.603-2.63.603a6.305 6.305 0 0 1-4.39-1.745 6.16 6.16 0 0 1-1.333-1.894 5.514 5.514 0 0 1-.49-2.31c0-.82.163-1.59.49-2.31a6.008 6.008 0 0 1 1.334-1.882 6.478 6.478 0 0 1 1.976-1.28 6.16 6.16 0 0 1 2.416-.477c1.007 0 1.884.2 2.63.604a4.627 4.627 0 0 1 1.775 1.657h.05v-1.96h1.51v10.844zm-1.46-5.196a4.46 4.46 0 0 0-.365-1.795 4.643 4.643 0 0 0-.98-1.455 4.656 4.656 0 0 0-1.46-.98 4.49 4.49 0 0 0-1.8-.363 4.49 4.49 0 0 0-1.8.364c-.56.242-1.048.57-1.46.98a4.65 4.65 0 0 0-.98 1.454 4.46 4.46 0 0 0-.365 1.795c0 .636.122 1.234.365 1.795.243.56.57 1.046.98 1.456.412.41.9.736 1.46.98a4.49 4.49 0 0 0 1.8.362 4.49 4.49 0 0 0 1.8-.363 4.656 4.656 0 0 0 1.46-.98c.41-.41.737-.895.98-1.455a4.46 4.46 0 0 0 .365-1.795zm5.428-2.384c0-.218-.01-.482-.025-.79-.017-.31-.03-.624-.038-.942-.01-.315-.02-.612-.038-.89-.02-.275-.028-.49-.028-.64h1.51c.017.437.03.855.038 1.257.01.4.03.66.063.778h.076c.3-.636.803-1.184 1.51-1.644.702-.46 1.524-.69 2.464-.69.906 0 1.644.142 2.214.426.57.284 1.02.657 1.346 1.117.327.46.553.99.68 1.594a9.06 9.06 0 0 1 .188 1.857v6.903h-1.51V88.15c0-.47-.042-.926-.126-1.37a3.618 3.618 0 0 0-.44-1.192 2.3 2.3 0 0 0-.882-.84c-.377-.21-.868-.314-1.472-.314a4.3 4.3 0 0 0-1.573.288 3.384 3.384 0 0 0-1.283.88c-.36.392-.646.886-.856 1.48-.21.594-.313 1.292-.313 2.096v5.798h-1.51v-8.333zm14.21.125h5.813V80.97h1.208v5.798h5.816v1.205h-5.813v5.798h-1.207v-5.795h-5.813V86.77zm26.817 6.5c-.57.687-1.216 1.193-1.938 1.52a5.62 5.62 0 0 1-2.34.49c-.89 0-1.714-.15-2.47-.453a5.6 5.6 0 0 1-1.937-1.267 5.843 5.843 0 0 1-1.258-1.933c-.302-.745-.453-1.56-.453-2.447s.15-1.703.453-2.448a5.83 5.83 0 0 1 1.258-1.932 5.6 5.6 0 0 1 1.938-1.268 6.595 6.595 0 0 1 2.467-.452 5.41 5.41 0 0 1 2.377.527 6.26 6.26 0 0 1 1.95 1.48l-1.208.905a5.228 5.228 0 0 0-1.435-1.142 3.54 3.54 0 0 0-1.685-.414c-.706 0-1.343.125-1.914.376a4.43 4.43 0 0 0-1.46 1.017 4.31 4.31 0 0 0-.917 1.506 5.362 5.362 0 0 0-.314 1.845c0 .652.104 1.267.313 1.845a4.295 4.295 0 0 0 2.378 2.52c.57.25 1.21.378 1.914.378.636 0 1.22-.145 1.748-.44a4.568 4.568 0 0 0 1.37-1.165l1.16.954zm1.98-4.09c0-.887.15-1.703.453-2.448a5.83 5.83 0 0 1 1.258-1.932 5.6 5.6 0 0 1 1.938-1.268 6.595 6.595 0 0 1 2.466-.452c.89 0 1.707.15 2.453.452.747.3 1.393.724 1.938 1.268.545.544.97 1.188 1.27 1.932.303.745.454 1.56.454 2.448 0 .887-.15 1.702-.453 2.447a5.746 5.746 0 0 1-1.27 1.933 5.763 5.763 0 0 1-1.94 1.267c-.745.302-1.563.452-2.452.452-.89 0-1.71-.15-2.466-.452a5.6 5.6 0 0 1-1.938-1.267 5.843 5.843 0 0 1-1.258-1.933c-.302-.745-.453-1.56-.453-2.447zm1.51 0c0 .652.104 1.267.314 1.845.21.577.52 1.08.92 1.506.404.423.89.762 1.46 1.013a4.71 4.71 0 0 0 1.914.377c.704 0 1.342-.125 1.912-.376a4.44 4.44 0 0 0 1.46-1.016c.402-.428.71-.93.918-1.507a5.36 5.36 0 0 0 .315-1.843c0-.653-.106-1.268-.316-1.845a4.31 4.31 0 0 0-.918-1.505 4.437 4.437 0 0 0-1.46-1.017c-.57-.25-1.208-.376-1.912-.376-.705 0-1.342.125-1.913.376-.57.25-1.057.59-1.46 1.017a4.31 4.31 0 0 0-.92 1.506 5.362 5.362 0 0 0-.312 1.846zm24.527 3.765h-.05a3.91 3.91 0 0 1-.88 1.04 5.3 5.3 0 0 1-1.146.73 5.74 5.74 0 0 1-1.296.426 6.688 6.688 0 0 1-1.334.135c-.89 0-1.71-.15-2.466-.452a5.6 5.6 0 0 1-1.938-1.267 5.843 5.843 0 0 1-1.258-1.933c-.302-.745-.453-1.56-.453-2.447s.15-1.703.453-2.448a5.83 5.83 0 0 1 1.258-1.933 5.6 5.6 0 0 1 1.938-1.268 6.595 6.595 0 0 1 2.466-.453c.436 0 .88.046 1.334.138a5.74 5.74 0 0 1 1.296.427 5.3 5.3 0 0 1 1.145.727c.352.294.646.64.88 1.043h.05V76h1.51v18.976h-1.51v-2.033zm.15-3.765c0-.653-.125-1.268-.377-1.845a4.724 4.724 0 0 0-1.03-1.506 4.958 4.958 0 0 0-1.536-1.017 4.814 4.814 0 0 0-1.91-.376c-.704 0-1.342.125-1.912.376a4.43 4.43 0 0 0-1.46 1.017 4.31 4.31 0 0 0-.918 1.506 5.362 5.362 0 0 0-.316 1.845c0 .652.105 1.267.315 1.845.21.577.513 1.08.916 1.506.403.423.89.762 1.46 1.013.57.25 1.208.377 1.912.377a4.82 4.82 0 0 0 1.912-.376c.588-.25 1.1-.59 1.536-1.016.436-.428.78-.93 1.03-1.507a4.566 4.566 0 0 0 .38-1.843zm15.595 3.614c-.59.887-1.316 1.523-2.18 1.908-.864.385-1.816.577-2.856.577-.89 0-1.695-.15-2.416-.452a5.448 5.448 0 0 1-1.863-1.267 5.566 5.566 0 0 1-1.195-1.933c-.277-.745-.416-1.57-.416-2.472 0-.87.143-1.674.428-2.41a5.75 5.75 0 0 1 1.208-1.92 5.67 5.67 0 0 1 1.837-1.28c.704-.31 1.484-.465 2.34-.465.89 0 1.673.155 2.352.465.68.31 1.25.72 1.71 1.23.462.51.81 1.09 1.045 1.744a5.84 5.84 0 0 1 .35 1.983v1.054h-9.763c0 .318.063.724.19 1.218a4.3 4.3 0 0 0 .69 1.443 4.4 4.4 0 0 0 1.347 1.205c.56.334 1.287.502 2.176.502a4.87 4.87 0 0 0 2.24-.553c.72-.37 1.275-.87 1.66-1.51l1.108.93zm-1.16-4.593c0-.52-.106-1.007-.315-1.46a3.893 3.893 0 0 0-.856-1.19 4.05 4.05 0 0 0-1.283-.816 4.16 4.16 0 0 0-1.573-.3c-.822 0-1.506.166-2.05.5-.546.335-.978.72-1.297 1.155-.32.434-.545.857-.68 1.267-.134.41-.2.69-.2.84h8.253z"/></g></svg>