<svg xmlns="http://www.w3.org/2000/svg" width="296" height="176" viewBox="0 0 296 176"><g fill="none" fill-rule="evenodd"><path fill="#5FCF80" d="M-235 0h768v176h-768z"/><path fill="#FFF" d="M183.236 57.653c-3.29-1.803-8.372 1.2-11.66 6.61l-5.682 9.615c-2.093 3.906-1.794 9.014.897 12.62l.3.3c2.69 3.606 6.28 7.21 7.178 8.413a5.817 5.817 0 0 1 1.495 2.707c.898 3.306-.896 6.91-4.484 7.813-3.29.9-6.878-.903-8.074-4.508-.3-.9-.3-1.802-.3-2.403.3-1.504-.298-3.608-2.39-6.01-2.094-2.105-6.28 2.102-7.476 6.31v.3c-1.197 4.205-2.094 8.112-1.795 8.412.3.3.3.3.3.602 1.793 3.606.597 7.812-2.992 9.615-3.587 1.802-8.072.6-9.866-3.006-1.794-3.605-.598-7.812 2.99-9.615.3 0 .3-.3.598-.3.3 0 .897-1.804 1.794-4.208a79.92 79.92 0 0 1 1.194-3.906c.3-1.202.897-4.206.598-5.408-.3-1.504-1.794-1.504-3.588-.6-.897.6-2.69 2.1-3.29 2.702-1.494 1.2-2.69 3.004-3.288 4.506-.3.6-.897 1.502-1.495 2.103-2.69 2.103-6.877 1.802-8.97-.9-2.093-2.706-1.794-6.61.897-9.016.897-.6 1.794-1.202 2.69-1.202 1.496-.3 7.177-3.606 10.466-6.01.598-.3 1.495-1.2 1.794-1.502.897-1.2 0-2.102-.897-2.102-2.69.3-5.68.6-6.28 1.502-.3.3-.597.9-1.195 1.2-2.69 1.804-6.28 1.203-8.073-1.2-1.793-2.405-1.195-6.01 1.197-7.813 1.194-.9 2.39-1.202 3.586-1.202 2.093 0 7.475 1.202 11.96.3l1.196-.3c4.486-.9 9.87-4.807 11.962-8.713 0 0 2.093-3.606 4.784-8.113 2.69-4.51 2.39-9.618-.3-11.12l-5.083-3.005c-2.69-1.503-6.878-1.503-9.57 0l-35.58 19.83c-2.69 1.505-4.785 4.81-4.785 7.815v38.46c0 3.005 2.093 6.61 4.784 8.113l35.58 19.53c2.692 1.503 6.88 1.503 9.57 0l35.282-19.53c2.69-1.503 4.784-5.108 4.784-8.113V68.77c0-3.005-2.093-6.61-4.784-8.113-5.98-3.004 0 .3-5.98-3.004z"/></g></svg>