<svg xmlns="http://www.w3.org/2000/svg" width="296" height="176" viewBox="0 0 296 176" xmlns:xlink="http://www.w3.org/1999/xlink"><defs><linearGradient id="a" x1="50%" x2="50%" y1="0%" y2="100%"><stop stop-color="#82D2DE" offset="0%"/><stop stop-color="#41B868" offset="100%"/></linearGradient><path id="b" d="M0 0h768v176H0z"/></defs><g fill="none" fill-rule="evenodd"><g transform="translate(-235)"><use fill="url(#a)" xlink:href="#b"/><use fill="#111418" fill-opacity=".2" style="mix-blend-mode:soft-light" xlink:href="#b"/></g><path fill="#FFF" d="M130.693 40.536c.642-.315 1.34-.538 2.066-.525 10.77.007 21.542.016 32.314-.003 1.355-.072 2.518.695 3.702 1.23 2.966 1.38 5.93 2.767 8.906 4.128 1.958.902 3.913 1.81 5.867 2.723-4.21 1.89-8.455 3.705-12.66 5.604-1.375.56-2.704 1.218-4.068 1.79-1.28.566-2.71.336-4.06.37-9.227-.004-18.454-.007-27.683.002-1.333-.022-2.74.182-3.986-.402-1.378-.59-2.726-1.253-4.117-1.814-4.16-1.885-8.36-3.68-12.523-5.545 3.003-1.41 6.016-2.8 9.025-4.2 2.416-1.093 4.82-2.21 7.212-3.353m-27.976 28.588c3.672-3.93 7.308-7.894 10.97-11.833 5.667 2.6 11.34 5.176 16.99 7.806-1.857 3.383-3.722 6.757-5.552 10.155-2.06 3.817-4.16 7.618-6.246 11.423-3.374-2.95-6.75-5.897-10.108-8.862-2.58-2.285-5.185-4.544-7.773-6.823a151.32 151.32 0 0 1 1.716-1.863m64.617-4.05c5.653-2.595 11.31-5.18 16.96-7.786 3.16 3.356 6.26 6.77 9.413 10.135 1.1 1.183 2.205 2.366 3.293 3.564-2.11 1.852-4.23 3.692-6.33 5.558-3.85 3.375-7.67 6.786-11.57 10.108-1.72-3.168-3.474-6.32-5.18-9.498-2.174-4.04-4.415-8.04-6.587-12.08m-35.176.625c11.233.01 22.467-.01 33.7.01 2.298 4.198 4.562 8.415 6.873 12.606 1.623 2.92 3.205 5.863 4.8 8.8-19.02.002-38.04.005-57.06 0 2.067-3.806 4.12-7.614 6.213-11.405 1.85-3.322 3.623-6.69 5.475-10.012m-31.008 6.92c2.29 1.97 4.486 4.047 6.747 6.05 3.496 3.132 6.954 6.307 10.455 9.436 1.143 1 1.79 2.4 2.576 3.665 1.8 2.958 3.582 5.926 5.395 8.878 3.436 5.614 6.818 11.262 10.253 16.873 3.184 5.208 6.322 10.442 9.506 15.65.576.935 1.143 1.87 1.683 2.827-.247-.315-.49-.633-.728-.948-2.59-3.525-5.19-7.04-7.78-10.563-1.76-2.415-3.544-4.812-5.307-7.22-2.406-3.292-4.842-6.565-7.252-9.854-3.196-4.37-6.42-8.714-9.62-13.08-2.783-3.807-5.6-7.59-8.386-11.396-1.757-2.403-3.53-4.794-5.29-7.192-.765-1.036-1.53-2.07-2.255-3.128m90.352 4.785c1.783-1.52 3.402-3.235 5.277-4.65-1.9 2.63-3.854 5.228-5.766 7.85-1.53 2.086-3.07 4.16-4.595 6.245-1.76 2.404-3.538 4.795-5.294 7.202-3.51 4.775-7.033 9.537-10.54 14.315-2.186 2.995-4.404 5.97-6.593 8.964-1.76 2.407-3.54 4.798-5.3 7.208-2.222 3.038-4.477 6.052-6.69 9.1a38.166 38.166 0 0 1-1.627 2.085c.733-1.294 1.534-2.543 2.302-3.81 3.31-5.427 6.582-10.874 9.894-16.295 2.423-3.95 4.796-7.932 7.222-11.884 2.455-4.01 4.88-8.032 7.32-12.05.752-1.203 1.362-2.534 2.44-3.5 3.995-3.58 7.95-7.2 11.945-10.78m-70.3 11.353c18.534-.007 37.07-.007 55.604 0-2.825 4.794-5.693 9.563-8.508 14.36-2.325 3.95-4.675 7.885-7.025 11.82-3.333 5.58-6.705 11.134-10.04 16.713a413.89 413.89 0 0 1-2.23 3.71 278.304 278.304 0 0 1-2.062-3.432c-3.05-5.1-6.134-10.176-9.18-15.276a3184.726 3184.726 0 0 1-10.347-17.4c-2.054-3.507-4.153-6.99-6.214-10.495"/></g></svg>