<svg xmlns="http://www.w3.org/2000/svg" width="296" height="176" viewBox="0 0 296 176" xmlns:xlink="http://www.w3.org/1999/xlink"><defs><linearGradient id="a" x1="50%" x2="50%" y1="0%" y2="100%"><stop stop-color="#73F36E" offset="0%"/><stop stop-color="#51E650" offset="100%"/></linearGradient><linearGradient id="c" x1="50%" x2="50%" y1="0%" y2="100%"><stop stop-color="#67FF81" offset="0%"/><stop stop-color="#01B41F" offset="100%"/></linearGradient><rect id="b" width="24.375" height="24.375" rx="13"/><path id="e" d="M16.278 7.14a.755.755 0 0 1 1.09 0l1.093 1.122c.306.31.304.81 0 1.12l-7.634 7.853a.753.753 0 0 1-1.09.002l-3.82-3.93a.807.807 0 0 1 0-1.12l1.092-1.123a.753.753 0 0 1 1.09 0l2.182 2.244 6-6.17z"/><filter id="d" width="200%" height="200%" x="-50%" y="-50%" filterUnits="objectBoundingBox"><feOffset in="SourceAlpha" result="shadowOffsetOuter1"/><feGaussianBlur stdDeviation=".5" in="shadowOffsetOuter1" result="shadowBlurOuter1"/><feColorMatrix values="0 0 0 0 0 0 0 0 0 0 0 0 0 0 0 0 0 0 0.0950237772 0" in="shadowBlurOuter1"/></filter><linearGradient id="f" x1="50%" x2="50%" y1="0%" y2="100%"><stop stop-color="#36CEF9" offset="0%"/><stop stop-color="#279DF4" offset="100%"/></linearGradient><path id="h" d="M15.844 16.047a2.844 2.844 0 0 0 .397-5.66 3.047 3.047 0 0 0-6.04-.743 2.234 2.234 0 0 0-2.884 2.018 2.235 2.235 0 0 0 .81 4.376v.01h7.72z"/><filter id="g" width="200%" height="200%" x="-50%" y="-50%" filterUnits="objectBoundingBox"><feOffset in="SourceAlpha" result="shadowOffsetOuter1"/><feGaussianBlur stdDeviation=".5" in="shadowOffsetOuter1" result="shadowBlurOuter1"/><feColorMatrix values="0 0 0 0 0 0 0 0 0 0 0 0 0 0 0 0 0 0 0.0950237772 0" in="shadowBlurOuter1"/></filter><linearGradient id="i" x1="50%" x2="50%" y1="0%" y2="100%"><stop stop-color="#FF904A" offset="0%"/><stop stop-color="#ED6611" offset="100%"/></linearGradient><path id="k" d="M4.266 11.47V6.964A1.02 1.02 0 0 0 5.28 5.94H13a1.02 1.02 0 0 0 1.016 1.025v4.504A1.02 1.02 0 0 0 13 12.49H5.28a1.02 1.02 0 0 0-1.014-1.023zM5.89 6.964a.407.407 0 0 0-.406.408v3.688c0 .226.18.41.407.41h6.5a.407.407 0 0 0 .41-.41V7.374a.406.406 0 0 0-.407-.408h-6.5zm0 .41v3.684h6.5V7.373h-6.5zm5.08 0v3.684h.405V7.373h-.406zm-4.064 0v3.684h.407V7.373h-.407z"/><filter id="j" width="200%" height="200%" x="-50%" y="-50%" filterUnits="objectBoundingBox"><feOffset in="SourceAlpha" result="shadowOffsetOuter1"/><feGaussianBlur stdDeviation=".5" in="shadowOffsetOuter1" result="shadowBlurOuter1"/><feColorMatrix values="0 0 0 0 0 0 0 0 0 0 0 0 0 0 0 0 0 0 0.0950237772 0" in="shadowBlurOuter1"/></filter><linearGradient id="l" x1="50%" x2="50%" y1="0%" y2="100%"><stop stop-color="#FF9B9A" offset="0%"/><stop stop-color="#F66" offset="100%"/></linearGradient><path id="n" d="M12.188 8.937v8.938c3.046-3.047 6.5-5.28 6.5-7.72 0-1.014-.61-3.655-3.25-3.655s-3.25 2.436-3.25 2.437v8.938c-3.047-3.047-6.5-5.28-6.5-7.72 0-1.014.61-3.655 3.25-3.655s3.25 2.436 3.25 2.437z"/><filter id="m" width="200%" height="200%" x="-50%" y="-50%" filterUnits="objectBoundingBox"><feOffset in="SourceAlpha" result="shadowOffsetOuter1"/><feGaussianBlur stdDeviation=".5" in="shadowOffsetOuter1" result="shadowBlurOuter1"/><feColorMatrix values="0 0 0 0 0 0 0 0 0 0 0 0 0 0 0 0 0 0 0.0950237772 0" in="shadowBlurOuter1"/></filter><linearGradient id="o" x1="51.647%" x2="51.647%" y1="100%" y2="0%"><stop stop-color="#0D4A96" offset="0%"/><stop stop-color="#3B75DA" offset="100%"/></linearGradient><path id="q" d="M3.447 2.844c-.22 0-.4.187-.4.406v5.687a.4.4 0 0 0 .4.407H8.74c.222 0 .4-.188.4-.407V3.25a.4.4 0 0 0-.4-.406H3.448zm.212.406a.208.208 0 0 0-.21.206v.197c0 .114.096.206.207.206h.196a.208.208 0 0 0 .207-.21v-.196a.208.208 0 0 0-.206-.206H3.66zm0 1.016a.208.208 0 0 0-.21.206v.197c0 .11.096.203.207.203h.196a.208.208 0 0 0 .207-.206V4.47a.208.208 0 0 0-.206-.206H3.66zm0 1.015a.208.208 0 0 0-.21.21v.196a.21.21 0 0 0 .207.207h.196a.208.208 0 0 0 .207-.206V5.49a.208.208 0 0 0-.206-.207H3.66zm0 1.02a.208.208 0 0 0-.21.205V6.7c0 .114.096.206.207.206h.196A.208.208 0 0 0 4.06 6.7v-.197a.208.208 0 0 0-.206-.206H3.66zm0 1.015a.208.208 0 0 0-.21.206v.197c0 .114.096.206.207.206h.196a.208.208 0 0 0 .207-.206V7.52a.208.208 0 0 0-.206-.207H3.66zm0 1.015a.208.208 0 0 0-.21.205v.197c0 .115.096.207.207.207h.196a.208.208 0 0 0 .207-.208v-.196a.208.208 0 0 0-.206-.206H3.66zm.81-5.08v2.64h3.25V3.25H4.47zm0 3.048v2.64h3.25v-2.64H4.47zM8.33 3.25a.208.208 0 0 0-.205.206v.197c0 .114.095.206.206.206h.2a.208.208 0 0 0 .206-.21v-.196a.208.208 0 0 0-.206-.206h-.2zm0 1.016a.208.208 0 0 0-.205.206v.197c0 .11.095.203.206.203h.2a.208.208 0 0 0 .206-.206V4.47a.208.208 0 0 0-.206-.206h-.2zm0 1.015a.208.208 0 0 0-.205.21v.196a.21.21 0 0 0 .206.207h.2a.208.208 0 0 0 .206-.206V5.49a.208.208 0 0 0-.206-.207h-.2zm0 1.02a.208.208 0 0 0-.205.205V6.7c0 .114.095.206.206.206h.2a.208.208 0 0 0 .206-.206v-.197a.208.208 0 0 0-.206-.206h-.2zm0 1.015a.208.208 0 0 0-.205.206v.197c0 .114.095.206.206.206h.2a.208.208 0 0 0 .206-.206V7.52a.208.208 0 0 0-.206-.207h-.2zm0 1.015a.208.208 0 0 0-.205.205v.197c0 .115.095.207.206.207h.2a.208.208 0 0 0 .206-.208v-.196a.208.208 0 0 0-.206-.206h-.2z"/><filter id="p" width="200%" height="200%" x="-50%" y="-50%" filterUnits="objectBoundingBox"><feOffset in="SourceAlpha" result="shadowOffsetOuter1"/><feGaussianBlur stdDeviation=".5" in="shadowOffsetOuter1" result="shadowBlurOuter1"/><feColorMatrix values="0 0 0 0 0 0 0 0 0 0 0 0 0 0 0 0 0 0 0.0950237772 0" in="shadowBlurOuter1"/></filter><linearGradient id="r" x1="50%" x2="50%" y1="0%" y2="100%"><stop stop-color="#FC687C" offset="0%"/><stop stop-color="#FB4655" offset="100%"/></linearGradient><path id="t" d="M9.293 7.938A5.66 5.66 0 0 1 6.07 8.94a5.66 5.66 0 0 1-3.226-1.002l.217-.344c.857.592 1.89.94 3.01.94a5.257 5.257 0 0 0 3.008-.94l.217.344zm-.435-.687a4.853 4.853 0 0 1-2.79.88c-1.037 0-2-.325-2.79-.877l2.573-4.06c.12-.19.318-.19.438 0l2.572 4.06zM6.03 5.997l-.286 1.028c-.045.162.052.293.22.293h.208c.167 0 .26-.13.206-.287L6.03 5.993zm-.835-.24l-.762.746c-.12.12-.1.28.045.366l.18.103c.144.084.288.018.32-.145l.217-1.07zm1.68.03L7.14 6.82c.042.162.192.227.338.143l.18-.103c.144-.083.16-.24.035-.35l-.818-.722z"/><filter id="s" width="200%" height="200%" x="-50%" y="-50%" filterUnits="objectBoundingBox"><feOffset in="SourceAlpha" result="shadowOffsetOuter1"/><feGaussianBlur stdDeviation=".5" in="shadowOffsetOuter1" result="shadowBlurOuter1"/><feColorMatrix values="0 0 0 0 0 0 0 0 0 0 0 0 0 0 0 0 0 0 0.0950237772 0" in="shadowBlurOuter1"/></filter><linearGradient id="u" x1="50%" x2="50%" y1="0%" y2="100%"><stop stop-color="#FDE75F" offset="0%"/><stop stop-color="#FDCD41" offset="100%"/></linearGradient><path id="w" d="M3.69 3.253a.21.21 0 0 0-.204.213V8.64c0 .12.1.214.205.214h.406A.21.21 0 0 0 4.3 8.64V3.467c0-.117-.1-.213-.206-.213H3.69zm1.22.2a.207.207 0 0 0-.205.21v2.78c0 .117.096.21.206.21h2.03v-3.2H4.91zm2.233.4v3.2h1.422a.4.4 0 0 0 .406-.404V4.26a.406.406 0 0 0-.403-.406H7.143z"/><filter id="v" width="200%" height="200%" x="-50%" y="-50%" filterUnits="objectBoundingBox"><feOffset in="SourceAlpha" result="shadowOffsetOuter1"/><feGaussianBlur stdDeviation=".5" in="shadowOffsetOuter1" result="shadowBlurOuter1"/><feColorMatrix values="0 0 0 0 0 0 0 0 0 0 0 0 0 0 0 0 0 0 0.0950237772 0" in="shadowBlurOuter1"/></filter><path id="y" d="M8.734 6.297A2.844 2.844 0 1 1 5.89 3.453v2.844h2.844zM6.297 2.64v3.25h3.25a3.25 3.25 0 0 0-3.25-3.25z"/><filter id="x" width="200%" height="200%" x="-50%" y="-50%" filterUnits="objectBoundingBox"><feOffset in="SourceAlpha" result="shadowOffsetOuter1"/><feGaussianBlur stdDeviation=".5" in="shadowOffsetOuter1" result="shadowBlurOuter1"/><feColorMatrix values="0 0 0 0 0 0 0 0 0 0 0 0 0 0 0 0 0 0 0.0950237772 0" in="shadowBlurOuter1"/></filter><linearGradient id="z" x1="50%" x2="50%" y1="0%" y2="100%"><stop stop-color="#52EDC7" offset="0%"/><stop stop-color="#5AC7FB" offset="100%"/></linearGradient><path id="B" d="M8.53 8.836v3.9a3.052 3.052 0 0 1-2.297-2.072h.318c.16 0 .214-.11.11-.247l-.91-1.182c-.107-.137-.277-.136-.38 0l-.91 1.182c-.108.137-.06.247.104.247h.41a4.267 4.267 0 0 0 8.336 0h.42c.156 0 .21-.11.104-.247l-.91-1.182c-.105-.137-.275-.136-.38 0l-.91 1.182c-.106.137-.058.247.105.247h.31a3.052 3.052 0 0 1-2.3 2.072v-3.9h1.217a.31.31 0 0 0 .306-.31V8.23a.31.31 0 0 0-.306-.308H9.75v-.736a1.524 1.524 0 1 0-1.22 0v.736H7.316a.31.31 0 0 0-.307.31v.294c0 .17.14.31.305.31H8.53zm.61-2.438a.61.61 0 1 0 0-1.218.61.61 0 0 0 0 1.218z"/><filter id="A" width="200%" height="200%" x="-50%" y="-50%" filterUnits="objectBoundingBox"><feOffset in="SourceAlpha" result="shadowOffsetOuter1"/><feGaussianBlur stdDeviation=".5" in="shadowOffsetOuter1" result="shadowBlurOuter1"/><feColorMatrix values="0 0 0 0 0 0 0 0 0 0 0 0 0 0 0 0 0 0 0.0950237772 0" in="shadowBlurOuter1"/></filter><linearGradient id="C" x1="50%" x2="50%" y1="0%" y2="100%"><stop stop-color="#FC5BC4" offset="0%"/><stop stop-color="#A545FE" offset="100%"/></linearGradient><path id="E" d="M5.18 13.863v-5.79a3.96 3.96 0 0 1 7.922 0v5.79l-1.145-1.017a.33.33 0 0 0-.44.01l-.793.795a.324.324 0 0 1-.44.014l-.917-.816a.356.356 0 0 0-.453 0l-.918.816a.33.33 0 0 1-.44-.01l-.793-.795a.324.324 0 0 0-.44-.01L5.18 13.86zm2.133-4.875a.914.914 0 1 0 0-1.828.914.914 0 0 0 0 1.828zm3.656 0a.914.914 0 1 0 0-1.828.914.914 0 0 0 0 1.828zm0-.61a.305.305 0 1 0 0-.608.305.305 0 0 0 0 .61zm-3.66 0a.305.305 0 1 0 0-.608.305.305 0 0 0 0 .61z"/><filter id="D" width="200%" height="200%" x="-50%" y="-50%" filterUnits="objectBoundingBox"><feOffset in="SourceAlpha" result="shadowOffsetOuter1"/><feGaussianBlur stdDeviation=".5" in="shadowOffsetOuter1" result="shadowBlurOuter1"/><feColorMatrix values="0 0 0 0 0 0 0 0 0 0 0 0 0 0 0 0 0 0 0.0950237772 0" in="shadowBlurOuter1"/></filter><path id="G" d="M9.3 11.695c0-.8.827-1.476 1.708-1.476.18 0 .32 0 .475.036v-3.25c-1.444 0-3.892.71-3.835.71v4.876c0 .747-.866 1.422-1.817 1.422-.76 0-1.41-.47-1.41-1.22 0-.796.828-1.49 1.71-1.49.18 0 .356.03.51.07v-5.6c0-.228.173-.47.388-.542 0 0 1.422-.487 2.317-.65 1.694-.307 2.74-.305 2.74-.305a.39.39 0 0 1 .41.394v6.804c-.015.74-.798 1.45-1.767 1.45-.76 0-1.427-.484-1.427-1.232z"/><filter id="F" width="200%" height="200%" x="-50%" y="-50%" filterUnits="objectBoundingBox"><feOffset in="SourceAlpha" result="shadowOffsetOuter1"/><feGaussianBlur stdDeviation=".5" in="shadowOffsetOuter1" result="shadowBlurOuter1"/><feColorMatrix values="0 0 0 0 0 0 0 0 0 0 0 0 0 0 0 0 0 0 0.0950237772 0" in="shadowBlurOuter1"/></filter><linearGradient id="H" x1="50%" x2="50%" y1="0%" y2="100%"><stop stop-color="#EFEFEF" offset="0%"/><stop stop-color="#C8C8C8" offset="100%"/></linearGradient><path id="J" d="M7.313 6.703h-.61a.31.31 0 0 1-.305.305.31.31 0 0 1-.304-.305h-.61v.914c0 .505.41.914.914.914v4.88c0 .335.283.61.61.61.336 0 .61-.28.61-.61V8.53a.912.912 0 0 0 .913-.913v-.914h-.606a.31.31 0 0 1-.305.305.31.31 0 0 1-.305-.305zm4.417-2.437s-1.523.914-1.523 3.046c0 1.372.373 2.463.373 2.463a.43.43 0 0 0 .392.28h1.216V4.577a.315.315 0 0 0-.313-.31h-.145zm-.76 5.79v3.34c0 .343.28.62.608.62a.61.61 0 0 0 .61-.62v-3.34h-1.22zm-5.18-5.79a.3.3 0 0 0-.306.3v2.137h.61V4.565c0-.166-.142-.3-.305-.3zm2.437 0a.3.3 0 0 0-.305.3v2.137h.61V4.565c0-.166-.142-.3-.305-.3zm-1.22 0a.3.3 0 0 0-.304.3v2.137h.61V4.565c0-.166-.142-.3-.305-.3z"/><filter id="I" width="200%" height="200%" x="-50%" y="-50%" filterUnits="objectBoundingBox"><feOffset in="SourceAlpha" result="shadowOffsetOuter1"/><feGaussianBlur stdDeviation=".5" in="shadowOffsetOuter1" result="shadowBlurOuter1"/><feColorMatrix values="0 0 0 0 0 0 0 0 0 0 0 0 0 0 0 0 0 0 0.0950237772 0" in="shadowBlurOuter1"/></filter><path id="L" d="M15.844 10.97h.404a.82.82 0 0 1 .814.82v4.45c0 .46-.364.823-.814.823h-8.12a.822.822 0 0 1-.816-.822v-4.45c0-.456.365-.82.815-.82h.404V9.34a3.657 3.657 0 0 1 7.315 0v1.63zm-3.86-3.658c-1.01 0-1.828.812-1.828 1.83v1.827h4.063V9.14a1.83 1.83 0 0 0-1.83-1.828h-.407z"/><filter id="K" width="200%" height="200%" x="-50%" y="-50%" filterUnits="objectBoundingBox"><feOffset in="SourceAlpha" result="shadowOffsetOuter1"/><feGaussianBlur stdDeviation=".5" in="shadowOffsetOuter1" result="shadowBlurOuter1"/><feColorMatrix values="0 0 0 0 0 0 0 0 0 0 0 0 0 0 0 0 0 0 0.0950237772 0" in="shadowBlurOuter1"/></filter><linearGradient id="M" x1="50%" x2="50%" y1="100%" y2="0%"><stop stop-color="#8F9CB3" offset="0%"/><stop stop-color="#BAC6D5" offset="100%"/></linearGradient><path id="O" d="M15.147 13h2.724a1.218 1.218 0 0 0 0-2.438h-2.72l-3.3-4.616c-.263-.367-.845-.664-1.282-.664h-.214c-.446 0-.718.357-.61.792l1.123 4.49H8.53L6.748 9.268c-.36-.262-.653-.118-.653.332v4.363c0 .446.3.59.653.332L8.53 13h2.337l-1.122 4.49c-.11.435.163.79.61.79h.213c.437 0 1.02-.296 1.28-.662L15.15 13z"/><filter id="N" width="200%" height="200%" x="-50%" y="-50%" filterUnits="objectBoundingBox"><feOffset in="SourceAlpha" result="shadowOffsetOuter1"/><feGaussianBlur stdDeviation=".5" in="shadowOffsetOuter1" result="shadowBlurOuter1"/><feColorMatrix values="0 0 0 0 0 0 0 0 0 0 0 0 0 0 0 0 0 0 0.0950237772 0" in="shadowBlurOuter1"/></filter><path id="Q" d="M9.81 4.31a.296.296 0 0 1 .143.258v1.425c.298.077.58.195.84.348L11.8 5.336a.302.302 0 0 1 .286-.076 4.902 4.902 0 0 1 .942.943.296.296 0 0 1-.08.28l-1.01 1.01c.153.258.27.54.348.838h1.425c.11 0 .206.06.26.15a4.92 4.92 0 0 1 0 1.334.296.296 0 0 1-.257.143h-1.425a3.23 3.23 0 0 1-.347.84l1.01 1.006a.302.302 0 0 1 .076.287 4.902 4.902 0 0 1-.944.94.296.296 0 0 1-.28-.08l-1.01-1.01c-.26.154-.54.27-.84.35v1.424c0 .108-.06.204-.15.258a4.92 4.92 0 0 1-1.33 0 .296.296 0 0 1-.143-.257V12.29a3.23 3.23 0 0 1-.84-.347L6.48 12.95a.302.302 0 0 1-.288.077 4.902 4.902 0 0 1-.942-.944.296.296 0 0 1 .08-.282l1.01-1.006a3.23 3.23 0 0 1-.35-.84H4.57a.302.302 0 0 1-.258-.15 4.92 4.92 0 0 1 0-1.332.296.296 0 0 1 .258-.14h1.425a3.23 3.23 0 0 1 .348-.84l-1.01-1.008a.302.302 0 0 1-.075-.288 4.902 4.902 0 0 1 .944-.942.29.29 0 0 1 .28.08l1.01 1.01a3.23 3.23 0 0 1 .838-.35V4.57c0-.108.06-.204.15-.258a4.92 4.92 0 0 1 1.333 0zm-.67 6.456a1.625 1.625 0 1 0 0-3.25 1.625 1.625 0 0 0 0 3.25z"/><filter id="P" width="200%" height="200%" x="-50%" y="-50%" filterUnits="objectBoundingBox"><feOffset in="SourceAlpha" result="shadowOffsetOuter1"/><feGaussianBlur stdDeviation=".5" in="shadowOffsetOuter1" result="shadowBlurOuter1"/><feColorMatrix values="0 0 0 0 0 0 0 0 0 0 0 0 0 0 0 0 0 0 0.0950237772 0" in="shadowBlurOuter1"/></filter><linearGradient id="R" x1="50%" x2="50%" y1="0%" y2="100%"><stop stop-color="#B8ADF1" offset="0%"/><stop stop-color="#7B75E4" offset="100%"/></linearGradient><path id="T" d="M15.837 7.72h.71c.33 0 .697.26.804.58l.087.252c.072.216-.05.386-.273.386h-9.76c-.218 0-.344-.173-.273-.386l.084-.252a.902.902 0 0 1 .804-.58h.71l.207-.827A.544.544 0 0 1 9.44 6.5h5.685c.22 0 .45.176.505.393l.207.826zM8.22 9.75l.856 7.39c.026.22.218.455.436.51 0 0 .332.225 2.77.225 2.437 0 2.786-.228 2.786-.228a.647.647 0 0 0 .42-.507l.856-7.39H8.22z"/><filter id="S" width="200%" height="200%" x="-50%" y="-50%" filterUnits="objectBoundingBox"><feOffset in="SourceAlpha" result="shadowOffsetOuter1"/><feGaussianBlur stdDeviation=".5" in="shadowOffsetOuter1" result="shadowBlurOuter1"/><feColorMatrix values="0 0 0 0 0 0 0 0 0 0 0 0 0 0 0 0 0 0 0.0950237772 0" in="shadowBlurOuter1"/></filter><linearGradient id="U" x1="50%" x2="50%" y1="0%" y2="100%"><stop stop-color="#FDC235" offset="0%"/><stop stop-color="#FA8829" offset="100%"/></linearGradient><path id="W" d="M6.504 14.016a.334.334 0 0 0-.34.402l.128.83c.104.666.738 1.205 1.408 1.205h8.96c.674 0 1.305-.54 1.408-1.204l.13-.834c.034-.222-.11-.402-.342-.402H6.504zM6.5 11.172a.804.804 0 0 0-.813.803v.425c0 .444.362.803.814.803h11.376c.45 0 .814-.354.814-.803v-.425a.806.806 0 0 0-.815-.803H6.5zm6.297 0l1.312 1.14a.49.49 0 0 0 .623 0l1.312-1.14h-3.25zm-.592-4.063c-5.085 0-5.96 2.9-5.96 2.9-.083.192.02.347.254.347h11.374c.224 0 .338-.175.244-.373 0 0-.83-2.878-5.916-2.878z"/><filter id="V" width="200%" height="200%" x="-50%" y="-50%" filterUnits="objectBoundingBox"><feOffset in="SourceAlpha" result="shadowOffsetOuter1"/><feGaussianBlur stdDeviation=".5" in="shadowOffsetOuter1" result="shadowBlurOuter1"/><feColorMatrix values="0 0 0 0 0 0 0 0 0 0 0 0 0 0 0 0 0 0 0.0950237772 0" in="shadowBlurOuter1"/></filter><linearGradient id="X" x1="50%" x2="50%" y1="0%" y2="100%"><stop stop-color="#C9F36E" offset="0%"/><stop stop-color="#61DC32" offset="100%"/></linearGradient><path id="Z" d="M11.622 6.34h1.58a.82.82 0 0 1 .814.818v4.82a.816.816 0 0 1-.815.82H5.08a.82.82 0 0 1-.814-.82V7.16c0-.452.364-.817.814-.817h1.58l.54-.835a.41.41 0 0 1 .31-.173h3.262c.106 0 .247.078.31.173l.54.836zm-2.48 5.65a2.43 2.43 0 0 0 2.436-2.42A2.43 2.43 0 0 0 9.14 7.147a2.43 2.43 0 0 0-2.437 2.42A2.43 2.43 0 0 0 9.14 11.99zm0-.605A1.822 1.822 0 0 0 10.97 9.57a1.822 1.822 0 0 0-1.83-1.82c-1.01 0-1.83.813-1.83 1.816 0 1.002.82 1.815 1.83 1.815z"/><filter id="Y" width="200%" height="200%" x="-50%" y="-50%" filterUnits="objectBoundingBox"><feOffset in="SourceAlpha" result="shadowOffsetOuter1"/><feGaussianBlur stdDeviation=".5" in="shadowOffsetOuter1" result="shadowBlurOuter1"/><feColorMatrix values="0 0 0 0 0 0 0 0 0 0 0 0 0 0 0 0 0 0 0.0950237772 0" in="shadowBlurOuter1"/></filter><rect id="aa" width="18.281" height="18.281" rx="9.75"/><path id="ac" d="M7.636 9.585l-1.677 2.95c-.085.145-.01.262.16.262h6.155c.17 0 .24-.12.16-.262l-1.69-2.97a1.58 1.58 0 0 0-.625-.12c-.77 0-.77.457-1.54.457-.486 0-.79-.183-.945-.317zm.638-3.796v1.52h1.848V5.79h.47a.46.46 0 0 0 .453-.458.452.452 0 0 0-.453-.457h-2.79a.46.46 0 0 0-.452.457c0 .252.2.457.453.457h.47zm-.616.6a1.063 1.063 0 0 1-.924-1.06c0-.593.48-1.066 1.07-1.066h2.788a1.065 1.065 0 0 1 .145 2.123v.924h-3.08V6.39zm0 .92L4.7 12.676c-.407.74-.05 1.34.785 1.34h7.425c.84 0 1.195-.594.784-1.34l-2.957-5.363h-3.08zm.616 0l-3.087 5.553c-.166.3-.033.54.306.54h7.41c.335 0 .477-.23.305-.54L10.122 7.31H8.274zm-.16 4.876c.17 0 .307-.137.307-.305a.306.306 0 0 0-.305-.304.306.306 0 0 0-.307.305c0 .17.137.306.307.306zm1.94-.915a.457.457 0 1 0 0-.913.457.457 0 0 0 0 .913zm-1.37-2.13a.305.305 0 1 0 0-.61.305.305 0 0 0 0 .61z"/><filter id="ab" width="200%" height="200%" x="-50%" y="-50%" filterUnits="objectBoundingBox"><feOffset in="SourceAlpha" result="shadowOffsetOuter1"/><feGaussianBlur stdDeviation=".5" in="shadowOffsetOuter1" result="shadowBlurOuter1"/><feColorMatrix values="0 0 0 0 0 0 0 0 0 0 0 0 0 0 0 0 0 0 0.0950237772 0" in="shadowBlurOuter1"/></filter></defs><g fill="none" fill-rule="evenodd"><path fill="#111" d="M-235 0h768v176h-768z"/><g transform="translate(138.844 75.813)"><use fill="url(#a)" xlink:href="#b"/><use fill="url(#c)" fill-opacity=".3" xlink:href="#b"/></g><g transform="translate(138.844 75.813)"><use fill="#000" filter="url(#d)" xlink:href="#e"/><use fill="#FFF" xlink:href="#e"/></g><g transform="translate(110.406 75.813)"><rect width="24.375" height="24.375" fill="url(#f)" rx="13"/><use fill="#000" filter="url(#g)" xlink:href="#h"/><use fill="#FFF" xlink:href="#h"/></g><g transform="translate(88.063 78.86)"><rect width="18.281" height="18.281" fill="url(#i)" rx="9.75"/><use fill="#000" filter="url(#j)" xlink:href="#k"/><use fill="#FFF" xlink:href="#k"/></g><g transform="translate(124.625 47.375)"><rect width="24.375" height="24.375" fill="url(#l)" rx="13"/><use fill="#000" filter="url(#m)" xlink:href="#n"/><use fill="#FFF" xlink:href="#n"/></g><g transform="translate(116.5 30.11)"><rect width="12.188" height="12.188" fill="url(#o)" rx="6.5"/><use fill="#000" filter="url(#p)" xlink:href="#q"/><use fill="#FFF" xlink:href="#q"/></g><g transform="translate(173.375 30.11)"><rect width="12.188" height="12.188" fill="url(#r)" rx="6.5"/><use fill="#000" filter="url(#s)" xlink:href="#t"/><use fill="#FFF" xlink:href="#t"/></g><g transform="translate(116.5 133.703)"><rect width="12.188" height="12.188" fill="url(#u)" rx="6.5"/><g transform="rotate(-15 6.23 6.097)"><use fill="#000" filter="url(#v)" xlink:href="#w"/><use fill="#FFF" xlink:href="#w"/></g></g><g transform="translate(173.375 133.703)"><rect width="12.188" height="12.188" fill="url(#f)" rx="6.5"/><use fill="#000" filter="url(#x)" xlink:href="#y"/><use fill="#FFF" xlink:href="#y"/></g><g transform="translate(102.28 50.422)"><rect width="18.281" height="18.281" fill="url(#z)" rx="9.75"/><use fill="#000" filter="url(#A)" xlink:href="#B"/><use fill="#FFF" xlink:href="#B"/></g><g transform="translate(181.5 50.422)"><rect width="18.281" height="18.281" fill="url(#C)" rx="9.75"/><use fill="#000" filter="url(#D)" xlink:href="#E"/><use fill="#FFF" xlink:href="#E"/></g><g transform="translate(102.28 107.297)"><rect width="18.281" height="18.281" fill="url(#r)" rx="9.75"/><use fill="#000" filter="url(#F)" xlink:href="#G"/><use fill="#FFF" xlink:href="#G"/></g><g transform="translate(181.5 107.297)"><rect width="18.281" height="18.281" fill="url(#H)" rx="9.75"/><use fill="#000" filter="url(#I)" xlink:href="#J"/><use fill="#FFF" xlink:href="#J"/></g><g transform="translate(153.063 47.375)"><rect width="24.375" height="24.375" fill="url(#u)" rx="13"/><use fill="#000" filter="url(#K)" xlink:href="#L"/><use fill="#FFF" xlink:href="#L"/></g><g transform="translate(124.625 104.25)"><rect width="24.375" height="24.375" fill="url(#M)" rx="13"/><g transform="rotate(-45 12.594 11.78)"><use fill="#000" filter="url(#N)" xlink:href="#O"/><use fill="#FFF" xlink:href="#O"/></g></g><g transform="translate(141.89 27.063)"><rect width="18.281" height="18.281" fill="url(#M)" rx="9.75"/><use fill="#000" filter="url(#P)" xlink:href="#Q"/><use fill="#FFF" xlink:href="#Q"/></g><g transform="translate(153.063 104.25)"><rect width="24.375" height="24.375" fill="url(#R)" rx="13"/><use fill="#000" filter="url(#S)" xlink:href="#T"/><use fill="#FFF" xlink:href="#T"/></g><g transform="translate(167.28 75.813)"><rect width="24.375" height="24.375" fill="url(#U)" rx="13"/><use fill="#000" filter="url(#V)" xlink:href="#W"/><use fill="#FFF" xlink:href="#W"/></g><g transform="translate(195.72 78.86)"><rect width="18.281" height="18.281" fill="url(#X)" rx="9.75"/><use fill="#000" filter="url(#Y)" xlink:href="#Z"/><use fill="#FFF" xlink:href="#Z"/></g><g transform="translate(141.89 130.656)"><use fill="url(#a)" xlink:href="#aa"/><use fill="url(#c)" fill-opacity=".3" xlink:href="#aa"/></g><g transform="translate(141.89 130.656)"><use fill="#000" filter="url(#ab)" xlink:href="#ac"/><use fill="#FFF" xlink:href="#ac"/></g></g></svg>