<svg xmlns="http://www.w3.org/2000/svg" width="296" height="176" viewBox="0 0 296 176" xmlns:xlink="http://www.w3.org/1999/xlink"><defs><rect id="a" width="96" height="96" rx="100"/><path id="b" d="M83.78 16C91.38 24.49 96 35.705 96 48c0 12.294-4.62 23.508-12.22 32H47.005A3 3 0 0 1 44 77V19a3 3 0 0 1 3.005-3H83.78z"/></defs><g fill="none" fill-rule="evenodd"><path fill="#4CAF50" d="M-235 0h768v176h-768z"/><g transform="translate(79 40)"><use fill="#4CAF50" xlink:href="#a"/><use fill="#FFF" fill-opacity=".5" xlink:href="#a"/></g><g transform="translate(123 56)"><rect width="96" height="64" fill="#FFF" fill-opacity=".5" rx="3"/><path fill="#70BF73" d="M96 58.5V3a3 3 0 0 0-3.005-3H5.502 8v8H0V5.5 61a3 3 0 0 0 3.005 3h87.493H88v-8h8v2.5zM24 24h8v8h-8v-8zm16 0h8v8h-8v-8zm16 0h8v8h-8v-8zm16 0h8v8h-8v-8zm16 0h8v8h-8v-8zM8 24h8v8H8v-8zm72 8h8v8h-8v-8zm-16 0h8v8h-8v-8zm-16 0h8v8h-8v-8zm-16 0h8v8h-8v-8zm-16 0h8v8h-8v-8zM0 32h8v8H0v-8zm88 8h8v8h-8v-8zm-16 0h8v8h-8v-8zm-16 0h8v8h-8v-8zm-16 0h8v8h-8v-8zm-16 0h8v8h-8v-8zM8 40h8v8H8v-8zm72 8h8v8h-8v-8zm-16 0h8v8h-8v-8zm-16 0h8v8h-8v-8zm-16 0h8v8h-8v-8zm-16 0h8v8h-8v-8zM0 48h8v8H0v-8zm72 8h8v8h-8v-8zm-16 0h8v8h-8v-8zm-16 0h8v8h-8v-8zm-16 0h8v8h-8v-8zM8 56h8v8H8v-8zm72-40h8v8h-8v-8zm-16 0h8v8h-8v-8zm-16 0h8v8h-8v-8zm-16 0h8v8h-8v-8zm-16 0h8v8h-8v-8zM0 16h8v8H0v-8zm88-8h8v8h-8V8zM72 8h8v8h-8V8zM56 8h8v8h-8V8zM40 8h8v8h-8V8zM24 8h8v8h-8V8zM8 8h8v8H8V8zm72-8h8v8h-8V0zM64 0h8v8h-8V0zM48 0h8v8h-8V0zM32 0h8v8h-8V0zM16 0h8v8h-8V0z"/></g><g transform="translate(79 40)"><use fill="#4CAF50" xlink:href="#b"/><use fill="#FFF" fill-opacity=".9" xlink:href="#b"/></g></g></svg>