<svg xmlns="http://www.w3.org/2000/svg" width="296" height="176" viewBox="0 0 296 176" xmlns:xlink="http://www.w3.org/1999/xlink"><defs><path id="a" d="M0 0h64v64H0z"/></defs><g fill="none" fill-rule="evenodd"><path fill="#8BC34A" d="M-235 0h768v176h-768z"/><g fill="#FFF"><path fill-opacity=".9" d="M65 56h64v64H65z"/><path fill-opacity=".25" d="M129 56h8v64h-8V56zm-72 0h8v64h-8V56zm72-8v8H65v-8h64zm0 72v8H65v-8h64z"/><path fill-opacity=".1" d="M129 48h8v8h-8v-8zm-72 0h8v8h-8v-8zm72 72h8v8h-8v-8zm-72 0h8v8h-8v-8z"/></g><g transform="translate(169 56)"><use fill="#4CAF50" xlink:href="#a"/><use fill="#FFF" fill-opacity=".9" xlink:href="#a"/></g></g></svg>