<svg xmlns="http://www.w3.org/2000/svg" width="296" height="176" viewBox="0 0 296 176"><g fill="none" fill-rule="evenodd" transform="translate(-235)"><path fill="#AB47BC" d="M0 0h768v176H0z"/><rect width="96" height="96" x="336" y="40" fill="#FFF" fill-opacity=".9" rx="106.667"/><path fill="#AB47BC" d="M365.65 66.85C359.738 71.984 356 79.555 356 88c0 13.546 9.62 24.846 22.4 27.44v-8.652c-8.096-2.41-14-9.91-14-18.788 0-6.125 2.81-11.595 7.21-15.19l6.79 6.79V60h-19.6l6.85 6.85zm36.7 42.3C408.262 104.016 412 96.445 412 88c0-13.546-9.62-24.846-22.4-27.44v8.652c8.096 2.41 14 9.91 14 18.788 0 6.125-2.81 11.595-7.21 15.19l-6.79-6.79V116h19.6l-6.85-6.85z"/></g></svg>