<svg xmlns="http://www.w3.org/2000/svg" width="296" height="176" viewBox="0 0 296 176" xmlns:xlink="http://www.w3.org/1999/xlink"><defs><rect id="a" width="56" height="56" rx="3"/><rect id="b" width="56" height="56" x="20" y="20" rx="3"/><rect id="c" width="56" height="56" x="40" y="40" rx="3"/></defs><g fill="none" fill-rule="evenodd"><path fill="#757575" d="M-235 0h768v176h-768z"/><g transform="translate(101 39)"><use fill="#757575" xlink:href="#a"/><use fill="#FFF" fill-opacity=".25" xlink:href="#a"/></g><g transform="translate(101 39)"><use fill="#757575" xlink:href="#b"/><use fill="#FFF" fill-opacity=".5" xlink:href="#b"/></g><g transform="translate(101 39)"><use fill="#757575" xlink:href="#c"/><use fill="#FFF" fill-opacity=".9" xlink:href="#c"/></g><path fill="#757575" d="M174.75 127.156c1.295 0 2.215-1.143 2.215-2.882v-.317c0-2.222-1.644-4.29-4.653-4.29h-.05c-2.812 0-4.888 1.91-4.888 4.886v.362c0 3.174 2.146 4.786 4.818 4.786h.057c.994 0 1.666-.13 2.01-.29v-.862c-.43.19-1.074.31-1.994.31h-.05c-2.09 0-3.885-1.275-3.885-3.98v-.285c0-2.52 1.69-4.08 3.93-4.08h.05c2.368 0 3.72 1.63 3.72 3.478v.217c0 1.48-.552 2.14-1.15 2.14-.42 0-.74-.248-.74-.73v-3.11h-.978v.735h-.05c-.115-.374-.528-.83-1.283-.83-1.105 0-1.734.843-1.734 2.05v.615c0 1.25.616 2.082 1.69 2.082.74 0 1.287-.45 1.408-.89h.063c.102.45.616.89 1.492.89zm-3.618-2.222v-.387c0-.9.425-1.314.984-1.314.552 0 .996.42.996 1.244v.514c0 .93-.42 1.285-.984 1.285-.59 0-.996-.38-.996-1.34zm8.29-3.142c0-.006-.006-.044-.006-.057 0-.787.564-1.485 1.523-1.485.85 0 1.482.552 1.482 1.402 0 .768-.514 1.36-.984 1.886l-3.21 3.643v.82h5.672v-1.11h-3.865v-.024l2.215-2.57c.787-.915 1.485-1.632 1.485-2.743 0-1.364-1.092-2.392-2.774-2.392-1.852 0-2.804 1.264-2.804 2.578v.057h1.262zM189.35 128h1.485l-2.26-3.352 2.235-3.338h-1.448l-1.536 2.45h-.013l-1.536-2.45h-1.517l2.21 3.338-2.24 3.352h1.42l1.58-2.444h.02l1.6 2.444z"/></g></svg>