<?xml version="1.0" encoding="utf-8"?>
<!-- Generator: Adobe Illustrator 19.1.0, SVG Export Plug-In . SVG Version: 6.00 Build 0)  -->
<svg version="1.1" id="圖層_1" xmlns="http://www.w3.org/2000/svg" xmlns:xlink="http://www.w3.org/1999/xlink" x="0px" y="0px"
	 viewBox="0 0 72 72" style="enable-background:new 0 0 72 72;" xml:space="preserve">
<style type="text/css">
	.st0{fill:#FF931E;stroke:#000000;stroke-miterlimit:10;}
	.st1{fill:#FF931E;}
</style>
<circle class="st0" cx="36" cy="36" r="35.3"/>
<path d="M48.3,64.3H23.7c-2.2,0-4-1.8-4-4V11.7c0-2.2,1.8-4,4-4h24.6c2.2,0,4,1.8,4,4v48.5C52.3,62.5,50.5,64.3,48.3,64.3z"/>
<path class="st1" d="M49.4,56.3H22.6c-0.3,0-0.5-0.2-0.5-0.5V16.2c0-0.3,0.2-0.5,0.5-0.5h26.9c0.3,0,0.5,0.2,0.5,0.5v39.7
	C49.9,56.1,49.7,56.3,49.4,56.3z"/>
<circle class="st1" cx="36" cy="60" r="2.4"/>
</svg>
