<?xml version="1.0" encoding="utf-8"?>
<!-- Generator: Adobe Illustrator 19.1.0, SVG Export Plug-In . SVG Version: 6.00 Build 0)  -->
<svg version="1.1" id="圖層_1" xmlns="http://www.w3.org/2000/svg" xmlns:xlink="http://www.w3.org/1999/xlink" x="0px" y="0px"
	 viewBox="0 0 72 72" style="enable-background:new 0 0 72 72;" xml:space="preserve">
<style type="text/css">
	.st0{fill:#FF931E;stroke:#000000;stroke-miterlimit:10;}
	.st1{stroke:#FF931E;stroke-width:3;stroke-miterlimit:10;}
</style>
<circle class="st0" cx="36" cy="36" r="35.3"/>
<path d="M58.1,54.8H13.9c-2.2,0-4-1.8-4-4V21.2c0-2.2,1.8-4,4-4h44.1c2.2,0,4,1.8,4,4v29.7C62.1,53,60.3,54.8,58.1,54.8z"/>
<path class="st1" d="M61.3,21.8L37.5,43.3c-0.9,0.8-2.2,0.8-3.1,0L10.7,21.8c-1.7-1.5-0.4-4,2-4h46.7C61.7,17.8,63,20.3,61.3,21.8z"
	/>
</svg>
