<?xml version="1.0" encoding="utf-8"?>
<!-- Generator: Adobe Illustrator 19.1.0, SVG Export Plug-In . SVG Version: 6.00 Build 0)  -->
<svg version="1.1" id="圖層_1" xmlns="http://www.w3.org/2000/svg" xmlns:xlink="http://www.w3.org/1999/xlink" x="0px" y="0px"
	 viewBox="0 0 72 72" style="enable-background:new 0 0 72 72;" xml:space="preserve">
<style type="text/css">
	.st0{fill:#FF931E;stroke:#000000;stroke-miterlimit:10;}
</style>
<circle class="st0" cx="36" cy="36" r="35.8"/>
<path d="M59.1,22.5c1.6-2.1,0.7-9.6-0.5-10.6c-2.7-1-10.4,3.8-10.8,4.3c-0.8-0.6-6-1.4-10.5-1.4c-4.4-0.1-9.4,1.4-9.4,1.4
	c-3-2.4-10-4.9-10.7-4.1c-0.9,0.8-2.3,6.5-0.5,10.4c-3,3.5-5.6,8.7-3.5,16.9c2.3,8.8,7,12.3,17.3,13.4c-1.8,1.6-2.4,4.4-2.4,5.1
	c-0.6,0.5-3.9,1.1-4.4,1c-2.2-0.2-5.3-0.9-6.8-3.9c0,0-3-3.9-5.1-4.2c-1.4-0.6-2.5-0.7-3,0.3c-0.3,1.4,1.8,1.7,2.7,2.6
	c1.1,0.8,1.7,1.4,2.8,4.4c1.2,3.2,3.6,5,6.3,5.4c0,0,6,0.5,7.3,0l0,7.6c2.6,0.6,5.3,0.9,8.1,0.9c4.1,0,8-0.7,11.7-2
	c0-5.6,0-10.7,0-12.1c-0.1-3.4-2.6-5.4-2.6-5.4c9.2-0.9,13.3-4.8,15.3-8c1.9-3.2,2.8-7.2,2.8-12.1S60.1,23.4,59.1,22.5z"/>
</svg>
