<?xml version="1.0" encoding="utf-8"?>
<!-- Generator: Adobe Illustrator 19.1.0, SVG Export Plug-In . SVG Version: 6.00 Build 0)  -->
<svg version="1.1" id="圖層_1" xmlns="http://www.w3.org/2000/svg" xmlns:xlink="http://www.w3.org/1999/xlink" x="0px" y="0px"
	 viewBox="0 0 72 72" style="enable-background:new 0 0 72 72;" xml:space="preserve">
<style type="text/css">
	.st0{fill:#FF931E;stroke:#000000;stroke-miterlimit:10;}
	.st1{stroke:#FF931E;stroke-width:2;stroke-miterlimit:10;}
</style>
<circle class="st0" cx="36" cy="35.9" r="35.3"/>
<g>
	<polygon points="19.2,50.9 36,38.7 52.8,50.9 36,63 	"/>
	<path d="M57,53.4h-0.1c-0.5,0-0.9-0.4-0.9-0.9v-22c0-0.5,0.4-0.9,0.9-0.9H57c0.5,0,0.9,0.4,0.9,0.9v22C57.9,53,57.5,53.4,57,53.4z"
		/>
	<path class="st1" d="M6.5,30.8l28.2-20.4c0.7-0.5,1.8-0.5,2.5,0l28.2,20.4c1.2,0.9,1.2,2.6,0,3.5L37.3,54.6c-0.7,0.5-1.8,0.5-2.5,0
		L6.5,34.2C5.4,33.4,5.4,31.6,6.5,30.8z"/>
	<path d="M56.5,57.9L54,55.2c-0.3-0.3-0.3-0.7,0-1l2.5-2.7c0.3-0.3,0.7-0.3,0.9,0l2.5,2.7c0.3,0.3,0.3,0.7,0,1l-2.5,2.7
		C57.1,58.2,56.7,58.2,56.5,57.9z"/>
</g>
</svg>
