<?xml version="1.0" encoding="utf-8"?>
<!-- Generator: Adobe Illustrator 19.1.0, SVG Export Plug-In . SVG Version: 6.00 Build 0)  -->
<svg version="1.1" id="圖層_1" xmlns="http://www.w3.org/2000/svg" xmlns:xlink="http://www.w3.org/1999/xlink" x="0px" y="0px"
	 viewBox="0 0 72 72" style="enable-background:new 0 0 72 72;" xml:space="preserve">
<style type="text/css">
	.st0{fill:#FF931E;stroke:#000000;stroke-miterlimit:10;}
	.st1{stroke:#000000;stroke-width:3;stroke-linecap:round;stroke-miterlimit:10;}
	.st2{fill:#FF931E;}
</style>
<circle class="st0" cx="36.3" cy="35.1" r="35.8"/>
<line class="st1" x1="27" y1="61.5" x2="48" y2="61.5"/>
<line class="st1" x1="33.5" y1="45" x2="33.5" y2="61"/>
<line class="st1" x1="39.5" y1="45" x2="39.5" y2="61"/>
<g>
	<path d="M58.8,52.5H13.1c-1.7,0-3-1.4-3-3V18.2c0-1.6,1.3-3,3-3h45.6c1.7,0,3,1.3,3,3v31.3C61.8,51.2,60.4,52.5,58.8,52.5z"/>
</g>
<g>
	<path d="M14.3,50.1c-0.3,0-0.5-0.2-0.5-0.5V18.2c0-0.3,0.2-0.5,0.5-0.5h44.2c0.3,0,0.5,0.2,0.5,0.5v31.4c0,0.3-0.2,0.5-0.5,0.5
		H14.3z"/>
	<path class="st2" d="M58.5,18.2v31.4H14.3V18.2H58.5 M58.5,17.2H14.3c-0.5,0-1,0.4-1,1v31.4c0,0.6,0.5,1,1,1h44.2c0.5,0,1-0.4,1-1
		V18.2C59.5,17.7,59.1,17.2,58.5,17.2L58.5,17.2z"/>
</g>
</svg>
