<?xml version="1.0" encoding="utf-8"?>
<!-- Generator: Adobe Illustrator 19.1.0, SVG Export Plug-In . SVG Version: 6.00 Build 0)  -->
<svg version="1.1" id="圖層_1" xmlns="http://www.w3.org/2000/svg" xmlns:xlink="http://www.w3.org/1999/xlink" x="0px" y="0px"
	 viewBox="0 0 72 72" style="enable-background:new 0 0 72 72;" xml:space="preserve">
<style type="text/css">
	.st0{fill:#FF931E;stroke:#000000;stroke-miterlimit:10;}
	.st1{stroke:#000000;stroke-miterlimit:10;}
</style>
<circle class="st0" cx="36" cy="36" r="35.8"/>
<g>
	<polygon class="st1" points="15.3,39.9 15.3,62.5 51.3,62.5 51.3,39.9 47.6,39.9 47.6,58.8 19.1,58.8 19.1,39.9 	"/>
	<rect x="22.3" y="50.5" class="st1" width="21.6" height="4.5"/>
	
		<rect x="22.6" y="43.6" transform="matrix(0.9958 9.181155e-02 -9.181155e-02 0.9958 4.3531 -2.8752)" class="st1" width="21.6" height="4.5"/>
	<rect x="24" y="35.7" transform="matrix(0.9662 0.2578 -0.2578 0.9662 10.9654 -7.6829)" class="st1" width="21.6" height="4.5"/>
	
		<rect x="27.4" y="27.4" transform="matrix(0.8522 0.5232 -0.5232 0.8522 21.1419 -15.5843)" class="st1" width="21.6" height="4.5"/>
	<rect x="34.4" y="20.1" transform="matrix(0.5581 0.8298 -0.8298 0.5581 38.526 -27.581)" class="st1" width="21.6" height="4.5"/>
	
		<rect x="43.8" y="16.4" transform="matrix(0.1713 0.9852 -0.9852 0.1713 63.5498 -38.3039)" class="st1" width="21.6" height="4.5"/>
</g>
</svg>
